<?xml version="1.0" encoding="UTF-8"?>
<svg xmlns="http://www.w3.org/2000/svg" viewBox="0 0 612 792" width="28" height="36">
  <path fill="none" d="M399.85,220.19c-3.44-5.83-15.69-16.38-23.85-18.05-1.86-.38-3.83-.96-5.81-1.51-6.58-.7-11.42-.2-12.57,1.51-1.49,2.22.75,10.12,1.68,12.38,5.67,13.68-12.53,21.4-24.58,11.64-9.91-8.02-1.34-18.02,1.1-27.8.46-1.83-.73-3.71-2.6-4-7.74-1.21-17.27-11.36-22.52-24.6-.47-1.19-1.59-2.01-2.87-2.08-.97-.05-2.28-.29-2.67.48-1.89,3.68-3.94,6.68-6.01,9.18-5.65,9.28-14.5,14.65-20.86,16.68-1.65.53-2.55,2.27-2.15,3.95,1.47,6.13,5.42,12.35,5.79,18.12.15,1.86-.09,3.58-.81,5.08-.06.13-.12.26-.18.39-.03.06-.05.12-.08.18,0,0-.01.01-.01.02-.74,1.46-1.88,2.88-3.55,4.24-6.07,4.91-13.79,5.34-19.26,2.82-.84-.32-1.57-.74-2.19-1.26-4.45-3.14-6.4-8.7-2.58-15.44.17-.3.41-.7.62-.97,1.41-1.83,2.28-3.46,2.68-4.91-.37-7.14-12.73-7.92-27.07-1.07-8.56,4.09-11.96,5.54-17.32,15.22-9.41,17.01-4.13,33.22,7.17,45.77,9.83,7.48,20.73,13.56,24.18,15.66.16.1,3.45,1.91,5.1,1.18,1.48-.65,2.81-1.73,3.41-3.21.18-.45.28-1.1.23-1.58v-1.58c-.33-2.16-.86-2.28-1.31-2.75-6.71-6.92.04-18.49,8.91-17.82,20.62,1.56,23.57,19.61,8.34,30.2-.68.47-.61,1.51.13,1.89,0,0,7.21,2.69,9.56,3.76,3.56,1.63,9.62,4.81,12.53,6.96,1.4,1.03,5.59,3.56,5.59,3.56.17.09.52.21.72.2l1.32-.37c.23-.08,2.26-.54,2.68-.67,2.94-.89,9.89-1.23,12.71.63.22.14.53.43.94.8l.31.02c.76-.35,1.3-.64,1.8-.81,0,0,15.17-10.37,18.73-11.9,1.66-.71,6.21-2.49,6.21-2.49,2.05-1.06,1.65-1.82-.1-3.34-12.33-10.71-8.07-26.62,11.31-28.43,10.85-1.01,14.04,11.15,9.57,16.6-1.84,2.24-1.57,3.03-.87,6.51l1.67,2.22c.87,1,2.06,1.28,3.37,1.44,1.82.22,4.23.21,5.79-.1,2.94-.58,7.28-2.06,11.93-3.99,18.72-11.08,28.3-37.31,15.77-58.53Z"/>
  <path fill="none" d="M312.94,343.77c-1.37-6.36-1.89-10.72-2.08-17.77-.04-1.33.5-4.83.03-7.62-.4-1.88-1.29-3.39-3.16-3.34-4.4.11-3.62,6.47-3.65,8.65-.08,5.89-.89,12.92-2.33,20.12-.41,2.02,1.13,3.91,3.19,3.91h4.8c2.08,0,3.63-1.92,3.19-3.95Z"/>
  <path fill="#C8923A" d="M420.01,277.74c25.07-27.2,19.53-79.29-16.32-95.6-6.7-3.05-13.65-3.15-20.46-4.85-2.73-.68-4.43-3.46-3.64-6.16,1.79-6.1-.72-13.45-4.88-16.1-.67-.42-1.9-1.16-3.35-1.84-.76-.36-2.24-.6-3.32-.67-3.37-.24-9.48-.6-11.87,1.53-2.05,1.82-3.74,4-5.42,6.18-1.79,3.01-6.15,2.95-11.17,1.03-5.55-2.11-8.09-4.73,2.99-1.82,2.76.73,6.3-.91,9.46-3.35,2.03-1.56,3.74-3.4,4.66-5.75.65-1.65.56-5.97.47-8.97-.05-1.65-1.16-4.98-1.81-6.41-5.92-12.99-13.2-11.93-18.25-11.84-4.9.09-9.49,3.71-11,2.81-1.11-.66,4.35-5.26-.73-9.88-4.35-3.95-10.72-9.23-12.84-10.78-2.11-1.55-4.13-3.39-6.81-2.15-4.24.73-10.97,6.12-20.31,15.23-2.63,2.56,1.73,5.5.53,7.76-.42.78-7.97-3.59-12.76-2.54-5.67,1.24-15.15,7.92-17.6,13.13-1.21,2.56-.82,6.75-.46,10.7.29,1.31.67,2.7,1.05,3.54.24.49.56.92.89,1.33.46.59.95,1.14,1.44,1.71,1.75,2.01,3.96,3.82,5.73,4.46,1.59.59,2.02.72,3.64,1.09.42.12,1,.18,1.34.23,4.43.59,9.88-1.13,8,1.23-1.49,1.87-5.3,2-8.96,1.44-1.82-.28-2.79-.58-3.16-.77l-.83-.61c-.3-.22-.59-.47-.85-.73-.57-.58-.53-.55-1.45-1.36-1.41-1.24-2.97-2.11-4.32-3.07-1.04-.75-2.26-1.6-3.05-2.1-2.39-1.01-5.49-1.17-8.75,0-2.54.91-4.94,2.16-6.68,3.36-6.91,4.76-7.83,6.32-7.22,16.78.05.92-.29,1.8-.89,2.44-13.66,2.06-28.07,5.41-36.62,15.35h0c-5.41,5.15-9.59,11.38-12.54,18.2-2.97,6.34-5.22,14.1-5.23,23.32h0c-.33,8.13.77,16.33,3.32,23.97,6.52,21.11,21.97,32.76,40.18,37.46,5.15,2.28,9.44,4.26,10.48,5.3,1.79,1.78,1.75,7.48,3.56,13.69-.31,4.22.68,8.62,4.53,12.37,3.45,3.37,7.04,4.49,10.54,4.31,4.45,1.14,7.6-.99,12.79-1.96,1-.19,1.93.1,2.64.65-9.79,6.84-9.21,19.98,2.13,24.41,1.99,6.56,4.07,13.24,4.31,20.53.13,3.91-2.61,7.83-1.56,11.89.25.98,1,1.76,1.94,2.13l8.3,3.3c1.16.46,1.94,1.55,2.04,2.79.87,10.57,8.54,20.08,8.54,30.68v123.3c0,10.16,0,21.21.42,32.03.07,1.87-1.42,3.43-3.3,3.41l-12.95-.13c-4.37,1.28,4.66,14.06-9.19,11.38-1.56-.3-2.71-1.66-2.69-3.25.13-8.19-3.78-14.81-12.83-15.95-4.3-.54-7.49-.16-11.58-.02-2.46.09-5.38-.15-7.4,0-4.37.32-17.18-.93-23.17.02-1.58.25-2.75,1.59-2.75,3.19-.01,7.82-.06,33.74-.07,41.46,0,1.44.93,2.69,2.31,3.1,6.75,1.98,22.03,2.88,21.84-3.67-.11-3.67-5.28-21.37,4.77-19.04,5.07,1.18,1.15,12.74,1.47,19.27.07,1.39,1.04,2.6,2.38,2.94,11.52,2.88,24.54-6.3,27.91,4.81.19.62.22,1.29.05,1.91-3.1,11.23-29.26-.32-29.4,5.62-.21,8.64,3.72,19.85-4.94,19.85-3.82,0-2.71-9.23-2.63-12.59.03-1.28.66-5.79-.47-7.49-4.66-7-16.59-3.7-21.48-1.97-1.29.46-2.14,1.66-2.14,3.03-.05,18.16-.71,45.9.32,46.95,1.89,1.91,18.7.74,23.43.8,8.25.09,27.13,2.85,29.81.07,5.39-5.59,6.27-14.05,6.07-21.59-.05-1.86,1.49-3.38,3.35-3.33,10.89.31-1.62,15.04,8.55,17.93,2.93.83,12.45,1.25,14.3.37,1.02-.49-.62,30.17,0,30.44,2.88,1.29,31.86,1.2,34.26-.52h0v-42.92c0-66.3-.91-171.35-2.56-239.22-.03-1.27-.38-2.56-.09-3.77,1.63-6.9,3.12-12.12,4.64-18.82,1.65-2.72,3.07-5.48,3.49-8.57.16-1.17.88-2.19,1.98-2.63,2.36-.94,6.38-2.54,8.43-3.35.93-.37,1.66-1.14,1.91-2.11,1.06-4.06-1.68-7.98-1.55-11.9.23-7.14,2.23-13.68,4.18-20.12,11.55-4.42,12.09-17.81,2.02-24.63.73-.68,1.77-1.05,2.88-.84,4.69.88,7.72,2.7,11.54,2.2,3.88.53,7.92-.42,11.78-4.19,3.93-3.84,4.88-8.35,4.5-12.66,1.84-6.23,1.78-11.98,3.58-13.76.56-.55,2.04-1.37,4.08-2.36,13.86-.96,25.93-8.74,34.54-19.69ZM329.01,330.09c-2.1-.13,1.7-5.6,1.95-6.08,2.29-4.31,13.6-12.26,14.42-11.59.93.75.25,1.77-.36,3.39,0,0-2.06,3.09-2.93,4.31-2.39,3.39-9.74,10.18-13.09,9.97ZM304.94,347.72c-2.06,0-3.6-1.89-3.19-3.91,1.44-7.2,2.25-14.23,2.33-20.12.03-2.18-.75-8.54,3.65-8.65,1.87-.05,2.75,1.46,3.16,3.34.47,2.8-.07,6.29-.03,7.62.19,7.05.71,11.41,2.08,17.77.44,2.03-1.11,3.95-3.19,3.95h-4.8ZM372.16,282.71c-1.56.31-3.96.31-5.79.1-1.31-.16-2.5-.44-3.37-1.44l-1.67-2.22c-.7-3.48-.97-4.27.87-6.51,4.47-5.44,1.28-17.61-9.57-16.6-19.38,1.81-23.64,17.72-11.31,28.43,1.74,1.52,2.15,2.28.1,3.34,0,0-4.55,1.77-6.21,2.49-3.56,1.53-18.73,11.9-18.73,11.9-.49.17-1.04.46-1.8.81l-.31-.02c-.41-.37-.73-.65-.94-.8-2.83-1.86-9.77-1.53-12.71-.63-.42.13-2.45.59-2.68.67l-1.32.37c-.19,0-.54-.11-.72-.2,0,0-4.19-2.53-5.59-3.56-2.91-2.15-8.97-5.34-12.53-6.96-2.35-1.07-9.56-3.76-9.56-3.76-.74-.38-.81-1.41-.13-1.89,15.23-10.59,12.28-28.64-8.34-30.2-8.87-.67-15.63,10.9-8.91,17.82.45.46.97.58,1.29,2.75v1.58c.06.48-.03,1.14-.21,1.58-.6,1.48-1.94,2.55-3.41,3.21-1.65.73-4.94-1.08-5.1-1.18-3.45-2.1-14.35-8.19-24.18-15.66-11.31-12.54-16.58-28.76-7.17-45.77,5.36-9.69,8.76-11.13,17.32-15.22,14.34-6.85,26.71-6.07,27.07,1.07-.4,1.45-1.26,3.08-2.68,4.91-.21.27-.45.67-.62.97-3.82,6.74-1.86,12.3,2.58,15.44.62.52,1.35.95,2.19,1.26,5.46,2.52,13.19,2.09,19.26-2.82,1.68-1.36,2.82-2.78,3.55-4.24,0,0,.01-.01.01-.02.03-.06.05-.12.08-.18.06-.13.13-.26.18-.39.72-1.5.95-3.22.81-5.08-.37-5.77-4.32-11.99-5.79-18.12-.4-1.68.5-3.42,2.15-3.95,6.37-2.03,15.21-7.4,20.86-16.68,2.07-2.5,4.12-5.5,6.01-9.18.4-.77,1.71-.53,2.67-.48,1.28.07,2.4.88,2.87,2.08,5.25,13.24,14.78,23.39,22.52,24.6,1.87.29,3.05,2.17,2.6,4-2.44,9.78-11.01,19.78-1.1,27.8,12.06,9.76,30.25,2.04,24.58-11.64-.94-2.26-3.18-10.16-1.68-12.38,1.15-1.71,5.99-2.21,12.57-1.51,1.98.55,3.95,1.13,5.81,1.51,8.15,1.67,20.41,12.22,23.85,18.05,12.53,21.22,2.95,47.45-15.77,58.53-4.64,1.94-8.98,3.42-11.93,3.99ZM266.9,320.12c-.87-1.23-2.93-4.31-2.93-4.31-.61-1.62-1.28-2.64-.36-3.39.82-.67,12.13,7.28,14.42,11.59.26.49,4.06,5.95,1.96,6.08-3.36.21-10.7-6.58-13.09-9.97Z"/>
</svg>
